<?xml version="1.0" encoding="UTF-8"?>
<svg id="Layer_1" xmlns="http://www.w3.org/2000/svg" viewBox="0 0 153.79 59.58">
    <defs><style>.cls-1{fill:#8c8c8c;}</style></defs>
    <path class="cls-1" d="M28.08,26.54c14.91,.67,25.58-11.35,33.22-22.61l-2.1-.57c.6,8.01,1.29,17.32-4.21,23.93-5.05,6.08-13.21,8.03-20.75,8.53-4.19,.28-8.43,.33-12.63,.15-2.14-.09-4.28-.28-6.39-.67-.99-.18-1.97-.4-2.93-.67-.48-.13-.99-.24-1.44-.45-.49-.24-.66-.33-.37-.75,.44-.63,1.83-1.09,2.53-1.38,.91-.37,1.85-.66,2.79-.94,2.04-.61,4.09-1.15,6.16-1.63,4.21-.99,8.48-1.75,12.75-2.41,9.52-1.45,19.11-2.36,28.61-3.94,1.25-.21,.96-2.27-.3-2.21l-3.28,.15c-1.44,.07-1.45,2.32,0,2.25l3.28-.15-.3-2.21c-9.5,1.58-19.09,2.49-28.61,3.94-4.74,.72-9.47,1.58-14.13,2.74-2.21,.55-4.44,1.12-6.59,1.87-1.67,.58-4.1,1.4-5.13,2.95-2.52,3.82,5.79,4.93,7.72,5.22,4.64,.68,9.35,.66,14.03,.55,8.52-.2,17.53-1.32,24.26-7.05,8.17-6.96,7.91-18.06,7.17-27.85-.09-1.13-1.45-1.51-2.1-.57-7.2,10.6-17.21,22.12-31.28,21.49-1.45-.06-1.44,2.19,0,2.25h0Z"/>
    <path class="cls-1" d="M72.1,15.59c-1.79,.22-3.57,.54-5.32,1.01-1.17,.31-3.51,.85-2.72,2.6,.58,1.28,2.9,1.45,4.1,1.61,1.28,.17,3.69,.61,4.67-.45,.36-.39,.4-.9,.18-1.36-.18-.36-.48-.58-.86-.66-.49-.1-1.01,.06-1.27,.52l-.05,.09c-.26,.45-.16,.99,.18,1.36,1.6,1.79,4.62,1.78,6.83,1.96,2.66,.21,5.33,0,7.72-1.27,1.01-.53,.52-2.09-.57-2.1-2.3,0-4.61,.32-6.81,1.02-1.06,.34-2.09,.75-3.09,1.24-.89,.44-2.14,.94-2.69,1.81-.51,.8-.21,1.79,.59,2.24,.89,.5,2.31,.45,3.3,.51,2.61,.17,5.22-.04,7.78-.54,1.17-.23,.97-1.84,0-2.17l-.8-.27v2.17c.85-.16,1.69-.19,2.55-.15,1.45,.07,1.44-2.18,0-2.25-1.06-.05-2.11,.04-3.15,.23-1.17,.22-.96,1.84,0,2.17l.8,.27v-2.17c-1.59,.31-3.19,.48-4.81,.51-.79,.01-1.58,0-2.37-.05-.41-.03-1.96,.03-2.21-.26l.33,.8c-.13,.23-.05,.21,.25-.05,.2-.12,.41-.24,.62-.36,.42-.23,.84-.45,1.27-.65,.88-.41,1.8-.74,2.74-1.02,1.86-.54,3.76-.79,5.7-.78l-.57-2.1c-1.93,1.02-4.09,1.13-6.23,.99-1.01-.07-2.01-.18-3.01-.32-.94-.13-1.93-.26-2.59-1l.18,1.36,.05-.09-1.27,.52,.13,.03-.67-.52,.06,.12,.18-1.36c.08-.08-.99-.05-1.14-.06-.52,0-1.04-.04-1.55-.1-.54-.07-1.08-.18-1.61-.31-.25-.06-.5-.13-.75-.21-.43-.16-.49-.17-.19-.03l.11,.87c-.12,.36-.39,.26,.13,.17,.25-.04,.51-.15,.76-.22,.57-.16,1.14-.3,1.72-.43,1.12-.25,2.25-.45,3.38-.6,1.42-.18,1.44-2.43,0-2.25h0Z"/>
    <path class="cls-1" d="M102.64,12.94c3.01,9.27,8.67,17.3,12.65,26.13,1,2.22,1.87,4.5,2.55,6.84s1.6,4.94-.56,6.71c-2.01,1.65-5.07,1.62-7.54,1.75-2.65,.13-5.31,.1-7.96-.09-5.35-.39-10.65-1.46-15.74-3.15-1.22-.41-2.44-.85-3.63-1.33-1.38-.55-2.78-1.23-1.94-2.95,.54-1.09,1.59-1.96,2.45-2.79,.96-.92,1.96-1.81,2.99-2.66,7.66-6.36,16.78-10.68,25.72-14.91,11.4-5.39,22.66-11.06,33.71-17.13,1.3-.71,.16-2.51-1.14-1.94-1.03,.45-1.48,1.45-1.8,2.47-.39,1.25-.85,2.25-1.92,3.07-2.51,1.93-5.91,1.66-8.89,1.47l.57,2.1,2.59-1.94c.92-.69,.44-2.55-.87-2.06-5.36,2.03-16.71,7.18-12.65,14.77,.81,1.51,2.12,2.68,3.5,3.66,1.15,.82,2.73,1.86,4.2,1.21,3.78-1.68-1.81-6.7-3.28-7.94-1.58-1.33-3.27-2.53-4.82-3.9-.35-.31-.92-.7-1.14-1.14-.3-.6,.12-.59,.7-.77,1.27-.4,2.55-.52,3.88-.44l-1.08-.83c.56,2.63,3.37,2.71,5.51,2.32,1.42-.26,.82-2.43-.6-2.17-.9,.16-2.48,.49-2.75-.75-.11-.5-.61-.8-1.08-.83-1.91-.12-4.6,.04-6.16,1.3s-.76,3.04,.39,4.22c2.84,2.9,6.75,4.74,9.01,8.22,.24,.36,.69,.66,.1,.57-.44-.07-.91-.46-1.27-.7-.87-.58-1.71-1.25-2.39-2.05-1.34-1.59-1.68-3.55-.58-5.38s2.81-2.96,4.52-4c2.1-1.28,4.3-2.35,6.6-3.22l-.87-2.06-2.59,1.94c-.88,.66-.61,2.02,.57,2.1,3.18,.2,6.57,.33,9.4-1.36,1.12-.67,2.12-1.59,2.77-2.72,.5-.88,.6-2.81,1.57-3.23l-1.14-1.94c-10.8,5.94-21.8,11.5-32.95,16.77-9.76,4.61-19.69,9.31-27.9,16.44-1.82,1.58-4.25,3.41-5.12,5.75-.93,2.5,.49,4.32,2.73,5.26,5.42,2.27,11.14,3.75,16.96,4.51,2.86,.37,5.74,.57,8.63,.56s5.69-.04,8.42-.64c2.25-.49,4.46-1.73,5.47-3.89,1.09-2.34,.1-5.14-.6-7.46-3.49-11.47-11.32-21-15.02-32.38-.45-1.37-2.62-.78-2.17,.6h0Z"/>
</svg>